<svg width="3539" height="2177" xmlns="http://www.w3.org/2000/svg" xmlns:xlink="http://www.w3.org/1999/xlink" overflow="hidden"><defs><clipPath id="clip0"><rect x="430" y="91" width="3539" height="2177"/></clipPath></defs><g clip-path="url(#clip0)" transform="translate(-430 -91)"><path d="M3966.97 1987.95C3966.97 1990.38 3966.76 1992.82 3966.38 1995.22 3941.84 2145.41 3160.37 2265.95 2199.97 2265.95 1239.57 2265.95 458.099 2145.41 433.553 1995.22 433.17 1992.82 432.974 1990.38 432.969 1987.95 432.969 1987.26 432.969 1986.54 433.038 1985.85 433.038 1985.47 433.072 1985.13 433.072 1984.75 433.101 1984.62 433.112 1984.48 433.107 1984.34 433.244 1982.8 433.45 1981.32 433.726 1979.81 444.932 1918.41 582.751 1861.99 807.546 1816.79 991.396 1779.82 1233.45 1750.34 1512.04 1731.81 1723.46 1717.74 1955.92 1709.95 2199.97 1709.95 2396.33 1709.95 2585.2 1714.99 2761.63 1724.26L2761.7 1724.26C2798.62 1726.21 2834.99 1728.35 2870.81 1730.68 3116.02 1746.53 3333.63 1770.8 3508.96 1801.17 3616.8 1819.88 3708.69 1840.91 3781.19 1863.7L3781.23 1863.7C3892.82 1898.81 3958.61 1938.18 3966.21 1979.81 3966.49 1981.32 3966.69 1982.8 3966.83 1984.34 3966.83 1984.48 3966.83 1984.62 3966.87 1984.75 3966.87 1985.13 3966.9 1985.47 3966.9 1985.85 3966.97 1986.54 3966.97 1987.26 3966.97 1987.95Z" fill="#3F3D56" fill-rule="evenodd" fill-opacity="1"/><path d="M3797.65 196.615C3779.57 180.746 3717.46 131.35 3637.34 122.332 3577.4 115.619 3507.37 131.488 3438.16 200.952 3382.64 256.646 3330.28 283.048 3282.52 279.468 3233.76 275.785 3201.33 241.019 3186.34 220.607 3184.18 217.612 3180.32 216.383 3176.83 217.577 3173.27 218.7 3170.86 222.025 3170.9 225.77L3170.9 482.764C3170.91 486.089 3172.82 489.115 3175.81 490.544 3194.51 499.425 3261.86 528.924 3329.66 528.924 3369.43 528.924 3409.4 518.77 3439.74 488.306 3440.05 487.996 3440.32 487.721 3440.63 487.446 3494.36 434.987 3612.81 445.761 3699.24 462.903 3734.99 469.994 3765.26 478.152 3783.21 483.384 3791.38 485.756 3799.93 481.022 3802.29 472.82 3802.7 471.419 3802.9 469.969 3802.9 468.513L3802.9 208.283C3802.9 203.819 3800.99 199.568 3797.65 196.615Z" fill="#FFD55A" fill-rule="evenodd" fill-opacity="1"/><path d="M2560.9 123.856C2560.89 106.768 2547.01 92.9211 2529.89 92.9244 2512.77 92.9312 2498.89 106.785 2498.9 123.873 2498.9 136.307 2506.37 147.531 2517.84 152.367L2517.84 312.925 2541.95 312.925 2541.95 152.367C2553.44 147.527 2560.9 136.297 2560.9 123.856Z" fill="#CCCCCC" fill-rule="evenodd" fill-opacity="1"/><path d="M2734.57 893.925 2734.56 893.925C2696.6 893.883 2665.86 863.005 2665.9 824.95 2665.9 824.114 2665.92 823.282 2665.95 822.445 2667.32 785.957 2698.84 756.272 2736.21 756.272L2924.86 756.272 3080.09 687.395C3088.76 683.561 3098.89 687.481 3102.74 696.16L3144.43 790.565C3148.26 799.254 3144.35 809.406 3135.69 813.264L2982.79 881.102C2967.65 887.847 2951.28 891.413 2934.72 891.588Z" fill="#CCCCCC" fill-rule="evenodd" fill-opacity="1"/><path d="M2277.11 1255.92C2276.21 1255.92 2275.32 1255.85 2274.43 1255.69L2172.77 1238.33C2164.35 1236.89 2158.68 1228.89 2160.12 1220.46 2160.14 1220.33 2160.17 1220.2 2160.19 1220.08L2239.77 813.744C2246.01 777.206 2280.65 752.648 2317.15 758.895 2353.64 765.142 2378.17 799.828 2371.93 836.365L2292.22 1243.41C2290.84 1250.68 2284.49 1255.93 2277.11 1255.92Z" fill="#CCCCCC" fill-rule="evenodd" fill-opacity="1"/><path d="M2285 1282C2285 1316.24 2257.24 1344 2223 1344 2188.76 1344 2161 1316.24 2161 1282 2161 1247.76 2188.76 1220 2223 1220 2257.24 1220 2285 1247.76 2285 1282Z" fill="#E6E6E6" fill-rule="evenodd" fill-opacity="1"/><path d="M2753 521C2753 648.026 2650.03 751 2523 751 2395.97 751 2293 648.026 2293 521 2293 393.975 2395.97 291 2523 291 2650.03 291 2753 393.975 2753 521Z" fill="#E6E6E6" fill-rule="evenodd" fill-opacity="1"/><path d="M2753 521C2753 648.026 2650.03 751 2523 751 2395.97 751 2293 648.026 2293 521 2293 393.975 2395.97 291 2523 291 2650.03 291 2753 393.975 2753 521Z" fill="#E6E6E6" fill-rule="evenodd" fill-opacity="1"/><path d="M2698 521C2698 617.65 2619.65 696 2523 696 2426.35 696 2348 617.65 2348 521 2348 424.35 2426.35 346 2523 346 2619.65 346 2698 424.35 2698 521Z" fill="#F5E6CC" fill-rule="evenodd" fill-opacity="1"/><path d="M2542.71 594.924C2531.5 594.608 2517.54 594.216 2506.8 586.257 2500.32 581.264 2496.34 573.628 2495.94 565.387 2495.55 559.525 2497.88 553.813 2502.25 549.947 2507.86 545.139 2516.07 544.012 2524.9 546.644L2515.75 478.856 2522.47 477.924 2533.23 557.617 2527.62 555.006C2521.11 551.985 2512.18 550.445 2506.63 555.198 2503.87 557.713 2502.42 561.394 2502.72 565.147 2503.05 571.277 2506 576.955 2510.8 580.707 2519.16 586.9 2530.29 587.697 2542.9 588.055Z" fill="#2F2E41" fill-rule="evenodd" fill-opacity="1"/><path d="M2445 485 2482 485 2482 491 2445 491Z" fill="#2F2E41" fill-rule="evenodd" fill-opacity="1"/><path d="M2562 485 2599 485 2599 491 2562 491Z" fill="#2F2E41" fill-rule="evenodd" fill-opacity="1"/><path d="M2404.54 522.403C2404.55 435.991 2467.56 362.515 2552.9 349.397 2457.68 333.299 2367.45 397.496 2351.37 492.79 2335.28 588.083 2399.43 678.38 2494.65 694.48 2513 697.583 2531.74 697.734 2550.15 694.923 2466.07 680.634 2404.56 607.745 2404.54 522.403Z" fill="#000000" fill-rule="evenodd" fill-opacity="0.2"/><path d="M2697.31 1255.92 2347.49 1255.92C2316.25 1255.89 2290.93 1230.5 2290.9 1199.18L2290.9 803.671C2290.93 772.347 2316.25 746.958 2347.49 746.924L2400.65 746.924 2400.65 762.401C2400.67 784.232 2418.32 801.927 2440.09 801.951L2604.71 801.951C2626.48 801.927 2644.13 784.232 2644.15 762.401L2644.15 746.924 2697.31 746.924C2728.55 746.958 2753.86 772.347 2753.9 803.671L2753.9 1199.18C2753.86 1230.5 2728.55 1255.89 2697.31 1255.92Z" fill="#E6E6E6" fill-rule="evenodd" fill-opacity="1"/><path d="M2744.9 1635.92 2607.43 1635.92 2607.43 1477.24 2427.9 1202 2543.02 1126.92 2721.76 1400.97C2734.56 1420.58 2741.57 1443.4 2741.96 1466.81Z" fill="#E6E6E6" fill-rule="evenodd" fill-opacity="1"/><path d="M2502.9 1740.92 2368.9 1740.92 2368.9 1338.92 2502.9 1338.92Z" fill="#E6E6E6" fill-rule="evenodd" fill-opacity="1"/><path d="M2670.69 1376.92 2375.11 1376.92C2358.99 1376.91 2345.92 1363.79 2345.9 1347.61L2345.9 1237.24C2345.92 1221.06 2358.99 1207.94 2375.11 1207.92L2670.69 1207.92C2686.81 1207.94 2699.88 1221.06 2699.9 1237.24L2699.9 1347.61C2699.88 1363.79 2686.81 1376.91 2670.69 1376.92Z" fill="#E6E6E6" fill-rule="evenodd" fill-opacity="1"/><path d="M2768.65 1699.92 2608.9 1699.92 2608.9 1592.92 2768.65 1592.92C2798.06 1592.92 2821.9 1616.88 2821.9 1646.42 2821.9 1675.97 2798.06 1699.92 2768.65 1699.92Z" fill="#CCCCCC" fill-rule="evenodd" fill-opacity="1"/><path d="M2528.65 1740.92 2368.9 1740.92 2368.9 1633.92 2528.65 1633.92C2558.06 1633.92 2581.9 1657.88 2581.9 1687.42 2581.9 1716.97 2558.06 1740.92 2528.65 1740.92Z" fill="#CCCCCC" fill-rule="evenodd" fill-opacity="1"/><path d="M2689.89 922.924 2562.91 922.924C2556.28 922.924 2550.9 917.552 2550.9 910.924 2550.9 904.297 2556.28 898.924 2562.91 898.924L2689.89 898.924C2696.52 898.924 2701.9 904.297 2701.9 910.924 2701.9 917.552 2696.52 922.924 2689.89 922.924Z" fill="#FFFFFF" fill-rule="evenodd" fill-opacity="1"/><path d="M2689.89 965.924 2562.91 965.924C2556.28 965.924 2550.9 960.552 2550.9 953.924 2550.9 947.297 2556.28 941.924 2562.91 941.924L2689.89 941.924C2696.52 941.924 2701.9 947.297 2701.9 953.924 2701.9 960.552 2696.52 965.924 2689.89 965.924Z" fill="#FFFFFF" fill-rule="evenodd" fill-opacity="1"/><path d="M2906.46 1742.92 2154.33 1742.92C2152.43 1742.92 2150.9 1741.35 2150.9 1739.42 2150.9 1737.49 2152.43 1735.92 2154.33 1735.92L2906.46 1735.92C2908.36 1735.92 2909.9 1737.49 2909.9 1739.42 2909.9 1741.35 2908.36 1742.92 2906.46 1742.92Z" fill="#3F3D56" fill-rule="evenodd" fill-opacity="1"/><path d="M3215 725C3215 759.242 3187.47 787 3153.5 787 3119.53 787 3092 759.242 3092 725 3092 690.758 3119.53 663 3153.5 663 3187.47 663 3215 690.758 3215 725Z" fill="#E6E6E6" fill-rule="evenodd" fill-opacity="1"/><path d="M3172.4 973.924C3161.08 973.91 3151.91 964.693 3151.9 953.319L3151.9 211.53C3151.9 200.149 3161.08 190.924 3172.4 190.924 3183.72 190.924 3192.9 200.149 3192.9 211.53L3192.9 953.319C3192.89 964.693 3183.72 973.91 3172.4 973.924Z" fill="#3F3D56" fill-rule="evenodd" fill-opacity="1"/><path d="M1457.9 874.925C1199.96 874.925 997.898 828.235 997.898 768.633 997.898 732.898 1069.49 701.014 1194.33 681.162 1196.2 680.853 1197.96 682.118 1198.27 683.987 1198.58 685.855 1197.31 687.621 1195.44 687.926 1195.43 687.93 1195.42 687.93 1195.41 687.933 1077.81 706.637 1004.76 737.561 1004.76 768.633 1004.76 822.533 1212.28 868.067 1457.9 868.067 1703.53 868.067 1911.03 822.533 1911.03 768.633 1911.03 737.428 1837.52 706.432 1719.18 687.738 1717.3 687.436 1716.03 685.677 1716.33 683.808 1716.63 681.946 1718.38 680.674 1720.25 680.966 1845.86 700.805 1917.9 732.761 1917.9 768.633 1917.9 828.235 1715.84 874.925 1457.9 874.925Z" fill="#FF0070" fill-rule="evenodd" fill-opacity="1"/><path d="M1229.9 895.073C1303.49 1020.92 1465.29 1063.36 1591.31 989.874 1630.98 966.733 1663.93 933.662 1686.9 893.925 1534.7 902.672 1382.14 903.056 1229.9 895.073Z" fill="#FF0070" fill-rule="evenodd" fill-opacity="1"/><path d="M1712.69 820.049C1752.75 679.562 1671.35 533.197 1530.89 493.134 1390.43 453.07 1244.09 534.479 1204.04 674.966 1190.25 723.315 1190.53 774.595 1204.84 822.794 1373.53 843.849 1544.24 842.925 1712.69 820.049Z" fill="#FF0070" fill-rule="evenodd" fill-opacity="1"/><path d="M1544 621C1544 638.121 1530.12 652 1513 652 1495.88 652 1482 638.121 1482 621 1482 603.879 1495.88 590 1513 590 1530.12 590 1544 603.879 1544 621Z" fill="#FFFFFF" fill-rule="evenodd" fill-opacity="1"/><path d="M1489 961C1489 978.121 1475.12 992 1458 992 1440.88 992 1427 978.121 1427 961 1427 943.879 1440.88 930 1458 930 1475.12 930 1489 943.879 1489 961Z" fill="#FFFFFF" fill-rule="evenodd" fill-opacity="1"/><path d="M1410 727.5C1410 755.943 1386.94 779 1358.5 779 1330.06 779 1307 755.943 1307 727.5 1307 699.057 1330.06 676 1358.5 676 1386.94 676 1410 699.057 1410 727.5Z" fill="#FFFFFF" fill-rule="evenodd" fill-opacity="1"/><path d="M2723 2173.5C2723 2219.06 2468.92 2256 2155.5 2256 1842.08 2256 1588 2219.06 1588 2173.5 1588 2127.94 1842.08 2091 2155.5 2091 2468.92 2091 2723 2127.94 2723 2173.5Z" fill="#000000" fill-rule="evenodd" fill-opacity="0.101961"/><path d="M3780.97 1864.14C3761.14 1869.81 3738.8 1875.07 3714.29 1879.88 3613.38 1899.75 3475.7 1911.95 3324.09 1911.95 3154.72 1911.95 3002.9 1896.72 2900.04 1872.63 2814.66 1852.63 2762.97 1826.62 2762.97 1798.06 2762.97 1772.97 2802.98 1749.74 2870.79 1730.95 3115.95 1746.82 3333.51 1771.12 3508.79 1801.53 3616.61 1820.26 3708.48 1841.33 3780.97 1864.14Z" fill="#000000" fill-rule="evenodd" fill-opacity="0.101961"/><path d="M2261.97 1825.93C2261.97 1877.85 1935.57 1919.95 1532.97 1919.95 1130.37 1919.95 803.969 1877.85 803.969 1825.93 804.055 1822.65 805.214 1819.5 807.27 1816.94 991.171 1779.99 1233.29 1750.51 1511.96 1731.99 1518.94 1731.95 1525.94 1731.94 1532.97 1731.95 1935.57 1731.95 2261.97 1774.02 2261.97 1825.93Z" fill="#000000" fill-rule="evenodd" fill-opacity="0.101961"/><path d="M1865 1359 2008 1359 2008 1822 1865 1822Z" fill="#002FA7" fill-rule="evenodd" fill-opacity="1"/><path d="M1394 1143 1537 1143 1537 1822 1394 1822Z" fill="#F76C6C" fill-rule="evenodd" fill-opacity="1"/><path d="M927 1143 1070 1143 1070 1822 927 1822Z" fill="#002FA7" fill-rule="evenodd" fill-opacity="1"/><path d="M1161 1143 1304 1143 1304 1605 1161 1605Z" fill="#FFD55A" fill-rule="evenodd" fill-opacity="1"/><path d="M1627 1143 1771 1143 1771 1278 1627 1278Z" fill="#FFD55A" fill-rule="evenodd" fill-opacity="1"/><path d="M1627 1359 1771 1359 1771 1822 1627 1822Z" fill="#8A8B8C" fill-rule="evenodd" fill-opacity="1"/><path d="M1865 1143 2241 1143 2241 1278 1865 1278Z" fill="#002FA7" fill-rule="evenodd" fill-opacity="1"/><path d="M3022.97 1961.76C3022.97 2129.16 2789.54 2077.38 2503.74 2077.38 2217.93 2077.38 1987.97 2129.16 1987.97 1961.76 1987.97 1794.35 2221.36 1757.95 2507.17 1757.95 2792.98 1757.95 3022.97 1794.35 3022.97 1961.76Z" fill="#000000" fill-rule="evenodd" fill-opacity="0.101961"/><path d="M3022.97 1920.76C3022.97 2088.16 2789.54 2036.38 2503.74 2036.38 2217.93 2036.38 1987.97 2088.16 1987.97 1920.76 1987.97 1753.35 2221.36 1716.95 2507.17 1716.95 2792.98 1716.95 3022.97 1753.35 3022.97 1920.76Z" fill="#3F3D56" fill-rule="evenodd" fill-opacity="1"/><path d="M2975.09 1620.27 2986.88 1668.94C2987.01 1669.48 2987 1670.05 2986.82 1670.58L2933.31 1837.83C2932.8 1839.43 2931.09 1840.31 2929.49 1839.8 2928.35 1839.44 2927.53 1838.44 2927.39 1837.25L2919.99 1772.09C2919.94 1771.66 2919.98 1771.22 2920.12 1770.81L2969.24 1620.05C2969.76 1618.45 2971.48 1617.57 2973.07 1618.1 2974.08 1618.42 2974.84 1619.24 2975.09 1620.27Z" fill="#2F2E41" fill-rule="evenodd" fill-opacity="1"/><path d="M2971.12 1624 2982 1665.7 2934.87 1818 2924 1770.86 2971.12 1624Z" fill="#F2F2F2" fill-rule="evenodd" fill-opacity="1"/><path d="M2733.31 1850.97C2735.12 1856.38 2921.9 1849.16 2923.71 1847.36 2925.3 1845.1 2926.63 1842.68 2927.71 1840.14 2929.41 1836.53 2930.97 1832.92 2930.97 1832.92L2923.71 1774.48 2738.75 1767.95C2738.75 1767.95 2734.13 1817.47 2733.18 1840.14 2732.86 1843.74 2732.9 1847.37 2733.31 1850.97Z" fill="#2F2E41" fill-rule="evenodd" fill-opacity="1"/><path d="M2900.36 1782 2904 1833 2822 1833 2822 1782 2900.36 1782Z" fill="#000000" fill-rule="evenodd" fill-opacity="0.101961"/><path d="M2794.52 1798.1 2795 1798 2792.73 1820 2748 1820 2748 1798.1 2794.52 1798.1Z" fill="#000000" fill-rule="evenodd" fill-opacity="0.101961"/><path d="M2733.31 1850.94C2735.12 1856.43 2922.16 1849.1 2923.97 1847.27 2925.56 1844.98 2926.9 1842.52 2927.97 1839.95L2733.18 1839.95C2732.86 1843.6 2732.9 1847.29 2733.31 1850.94Z" fill="#000000" fill-rule="evenodd" fill-opacity="0.101961"/><path d="M3598 1054C3598 1148.44 3521.44 1225 3427 1225 3332.56 1225 3256 1148.44 3256 1054 3256 959.559 3332.56 883 3427 883 3521.44 883 3598 959.559 3598 1054Z" fill="#FF6584" fill-rule="evenodd" fill-opacity="1"/><path d="M3238 1182.5C3238 1190.51 3231.73 1197 3224 1197 3216.27 1197 3210 1190.51 3210 1182.5 3210 1174.49 3216.27 1168 3224 1168 3231.73 1168 3238 1174.49 3238 1182.5Z" fill="#F2F2F2" fill-rule="evenodd" fill-opacity="1"/><path d="M3792 1282.5C3792 1290.51 3785.73 1297 3778 1297 3770.27 1297 3764 1290.51 3764 1282.5 3764 1274.49 3770.27 1268 3778 1268 3785.73 1268 3792 1274.49 3792 1282.5Z" fill="#F2F2F2" fill-rule="evenodd" fill-opacity="1"/><path d="M3134 1775.64 3130.36 1775.64 3130.36 1772 3129.64 1772 3129.64 1775.64 3126 1775.64 3126 1776.36 3129.64 1776.36 3129.64 1780 3130.36 1780 3130.36 1776.36 3134 1776.36 3134 1775.64Z" fill="#F2F2F2" fill-rule="evenodd" fill-opacity="1"/><path d="M3138 1342.64 3134.36 1342.64 3134.36 1339 3133.64 1339 3133.64 1342.64 3130 1342.64 3130 1343.36 3133.64 1343.36 3133.64 1347 3134.36 1347 3134.36 1343.36 3138 1343.36 3138 1342.64Z" fill="#F2F2F2" fill-rule="evenodd" fill-opacity="1"/><path d="M3672.47 1167.93C3672.47 1736.48 3601.05 1736.48 3512.97 1736.48 3467.43 1736.48 3426.35 1736.48 3397.3 1657.95 3388.95 1635.38 3381.57 1606.27 3375.39 1568.81 3361.46 1484.59 3353.47 1358.04 3353.47 1167.93 3353.47 1094.84 3362.11 1023.17 3375.39 956.239 3381.77 924.016 3389.22 892.912 3397.3 863.248 3407.19 826.93 3418.02 792.78 3428.96 761.531 3436.29 740.521 3443.69 720.802 3450.88 702.593 3484.07 618.549 3512.97 566.483 3512.97 566.483 3512.97 566.483 3672.47 853.937 3672.47 1167.93Z" stroke="#000000" stroke-width="3.30397" stroke-linecap="butt" stroke-linejoin="miter" stroke-miterlimit="8" stroke-opacity="1" fill="#F2F2F2" fill-rule="evenodd" fill-opacity="1"/><path d="M3518.98 929.986 3518.98 1716.99 3502.98 1716.99 3502.98 976.781C3508.33 960.099 3513.73 944.444 3518.98 929.986Z" fill="#000000" fill-rule="evenodd" fill-opacity="1"/><path d="M3597 984.5C3597 1032.83 3557.82 1072 3509.5 1072 3461.18 1072 3422 1032.83 3422 984.5 3422 936.175 3461.18 897 3509.5 897 3557.82 897 3597 936.175 3597 984.5Z" fill="#3F3D56" fill-rule="evenodd" fill-opacity="1"/><path d="M3701.63 1708.26C3682.15 1660.31 3657.13 1652.03 3640.77 1652.75L3640.77 1644.98 3385.17 1644.98 3385.17 1652.75C3368.81 1652.03 3343.79 1660.31 3324.31 1708.26 3292.66 1786.13 3343.78 1919.98 3343.78 1919.98 3343.78 1919.98 3316.46 1733.31 3407.18 1732.08 3415.04 1742.32 3424.68 1751.07 3435.64 1757.89L3435.64 1808.1 3582.15 1808.1 3582.15 1762.46C3596.48 1755.2 3608.98 1744.82 3618.76 1732.08 3709.48 1733.31 3682.16 1919.98 3682.16 1919.98 3682.16 1919.98 3733.28 1786.13 3701.63 1708.26Z" fill="#6C63FF" fill-rule="evenodd" fill-opacity="1"/><path d="M3578 984.5C3578 1022.33 3547.33 1053 3509.5 1053 3471.67 1053 3441 1022.33 3441 984.5 3441 946.669 3471.67 916 3509.5 916 3547.33 916 3578 946.669 3578 984.5Z" fill="#6C63FF" fill-rule="evenodd" fill-opacity="1"/></g></svg>