<svg width="4206" height="2478" xmlns="http://www.w3.org/2000/svg" xmlns:xlink="http://www.w3.org/1999/xlink" overflow="hidden"><defs><clipPath id="clip0"><rect x="-210" y="-146" width="4206" height="2478"/></clipPath></defs><g clip-path="url(#clip0)" transform="translate(210 146)"><path d="M2658.25 818.325C2628.71 755.731 2575.79 707.216 2510.87 683.208L2428.9 934.973Z" fill="#002FA7" fill-rule="evenodd" fill-opacity="1"/><path d="M2648.04 849.673 2418.7 966.321 2660.51 1045.04C2681.54 980.732 2677.08 910.799 2648.04 849.673Z" fill="#E4E4E4" fill-rule="evenodd" fill-opacity="1"/><path d="M2654.88 1063.22C2649.78 1078.91 2643.23 1094.1 2635.31 1108.58 2634.69 1109.73 2634.06 1110.86 2633.42 1111.99 2619.2 1137.11 2600.94 1159.72 2579.37 1178.91 2578.22 1179.94 2577.04 1180.97 2575.88 1181.97L2575.87 1181.98C2554.9 1200 2531.25 1214.63 2505.77 1225.36 2504.51 1225.9 2503.25 1226.43 2501.98 1226.94 2447.55 1248.97 2387.33 1252.21 2330.84 1236.17L2412.8 984.41Z" fill="#F0F0F0" fill-rule="evenodd" fill-opacity="1"/><path d="M2306.31 1228.43C2309.66 1229.52 2313.01 1230.52 2316.37 1231.47L2398.34 979.694 2155.58 1103.17C2187.9 1162.7 2241.86 1207.54 2306.31 1228.43Z" fill="#CACACA" fill-rule="evenodd" fill-opacity="1"/><path d="M2476.61 706.479C2337.4 661.158 2187.82 737.238 2142.51 876.408L2404.83 961.806 2486.79 710.041C2483.44 708.797 2480.05 707.597 2476.61 706.479Z" fill="#FFD55A" fill-rule="evenodd" fill-opacity="1"/><path d="M2328.55 956.982 2258.31 992.71 2256.01 993.878 2255.96 993.903 2194.71 1025.05 2192.38 1026.23 2126.21 1059.89 2123.88 1061.08 2123.87 1061.09 2085.79 1080.45C2050.84 1016.49 2043.85 940.939 2066.49 871.668Z" fill="#FF0070" fill-rule="evenodd" fill-opacity="1"/><path d="M2616.7 1331.04 2141.73 1176.41C2141.04 1176.19 2140.66 1175.45 2140.89 1174.76 2141.11 1174.07 2141.85 1173.7 2142.54 1173.92L2617.52 1328.55C2618.2 1328.77 2618.58 1329.51 2618.36 1330.2 2618.13 1330.89 2617.39 1331.27 2616.7 1331.04Z" fill="#F0F0F0" fill-rule="evenodd" fill-opacity="1"/><path d="M2565.6 1490.15 2720.18 1015.31C2720.41 1014.62 2721.15 1014.25 2721.83 1014.47 2722.52 1014.69 2722.9 1015.43 2722.67 1016.12L2568.09 1490.96C2567.87 1491.65 2567.12 1492.02 2566.44 1491.8 2565.75 1491.58 2565.37 1490.84 2565.6 1490.15Z" fill="#F0F0F0" fill-rule="evenodd" fill-opacity="1"/><path d="M2552.03 1358.25C2548.45 1369.26 2536.61 1375.28 2525.59 1371.7 2514.58 1368.11 2508.55 1356.27 2512.14 1345.26 2515.72 1334.25 2527.56 1328.23 2538.58 1331.81 2549.59 1335.4 2555.62 1347.24 2552.03 1358.25Z" fill="#F0F0F0" fill-rule="evenodd" fill-opacity="1"/><path d="M2250.07 638.294C2246.48 649.307 2234.65 655.327 2223.63 651.741 2212.61 648.154 2206.59 636.319 2210.18 625.306 2213.76 614.293 2225.6 608.273 2236.61 611.859 2247.63 615.446 2253.65 627.281 2250.07 638.294Z" fill="#F0F0F0" fill-rule="evenodd" fill-opacity="1"/><path d="M2123.87 1061.09C2095.85 1006.67 2089.64 943.623 2106.53 884.802L2111.58 886.245C2095.05 943.787 2101.12 1005.47 2128.54 1058.69Z" fill="#3F3D56" fill-rule="evenodd" fill-opacity="1"/><path d="M2194.75 1025.11 2190.02 1027.35C2171.94 989.297 2164.15 947.171 2167.42 905.173L2170.03 905.374 2172.6 906.21C2169.52 947.068 2177.15 988.024 2194.71 1025.05Z" fill="#3F3D56" fill-rule="evenodd" fill-opacity="1"/><path d="M2258.39 992.929 2256.01 993.878 2255.96 993.903 2253.53 994.873C2244.98 973.593 2239.52 951.203 2237.31 928.38L2239.92 928.126 2242.65 929.015C2244.87 950.873 2250.14 972.313 2258.31 992.71 2258.33 992.784 2258.36 992.858 2258.39 992.929Z" fill="#3F3D56" fill-rule="evenodd" fill-opacity="1"/><path d="M1625.05 2087.9 1621.79 2084.1C1649.33 2060.48 1683.61 2031.08 1696.44 1992.22 1709.08 1953.92 1699.57 1907.67 1671.61 1871.54 1647.81 1840.78 1611.07 1816.56 1565.35 1801.5 1556.33 1798.53 1546.97 1795.89 1537.92 1793.34 1516.03 1787.16 1493.4 1780.78 1473.35 1769.12 1445.75 1753.06 1420.68 1721.51 1426.89 1687.24 1431.19 1664.86 1447.84 1646.89 1469.8 1640.9L1471.13 1645.73C1451.01 1651.21 1435.76 1667.67 1431.81 1688.17 1426.03 1720.02 1449.77 1749.61 1475.87 1764.79 1495.36 1776.14 1517.69 1782.43 1539.27 1788.52 1548.38 1791.08 1557.8 1793.74 1566.92 1796.74 1613.58 1812.12 1651.16 1836.92 1675.56 1868.47 1704.53 1905.91 1714.35 1953.93 1701.19 1993.79 1687.92 2033.97 1653.06 2063.87 1625.05 2087.9Z" fill="#F1F1F1" fill-rule="evenodd" fill-opacity="1"/><path d="M1544.57 1629.61C1547.06 1641.1 1529.88 1654.57 1506.21 1659.68 1482.54 1664.8 1461.33 1659.62 1458.85 1648.13 1456.37 1636.63 1473.54 1623.17 1497.21 1618.05 1520.89 1612.94 1542.09 1618.11 1544.57 1629.61Z" fill="#F1F1F1" fill-rule="evenodd" fill-opacity="1"/><path d="M1608.49 1759.33C1610.98 1770.82 1593.8 1784.29 1570.13 1789.4 1546.46 1794.52 1525.26 1789.34 1522.77 1777.85 1520.29 1766.35 1537.47 1752.89 1561.14 1747.77 1584.81 1742.66 1606.01 1747.83 1608.49 1759.33Z" fill="#F1F1F1" fill-rule="evenodd" fill-opacity="1"/><path d="M1534.88 1798.3C1537.36 1809.79 1520.19 1823.26 1496.52 1828.37 1472.85 1833.49 1451.64 1828.31 1449.16 1816.82 1446.68 1805.32 1463.85 1791.86 1487.52 1786.74 1511.19 1781.63 1532.4 1786.8 1534.88 1798.3Z" fill="#F1F1F1" fill-rule="evenodd" fill-opacity="1"/><path d="M2108 1808 2113 1808 2113 1823 2108 1823Z" fill="#E5E5E5" fill-rule="evenodd" fill-opacity="1"/><path d="M2112.93 2142.9 2107.93 2142.9 2107.93 2110.9 2112.93 2110.9ZM2112.93 2078.9 2107.93 2078.9 2107.93 2046.9 2112.93 2046.9ZM2112.93 2014.9 2107.93 2014.9 2107.93 1982.9 2112.93 1982.9ZM2112.93 1950.9 2107.93 1950.9 2107.93 1918.9 2112.93 1918.9ZM2112.93 1886.9 2107.93 1886.9 2107.93 1854.9 2112.93 1854.9Z" fill="#E5E5E5" fill-rule="evenodd" fill-opacity="1"/><path d="M2108 2175 2113 2175 2113 2190 2108 2190Z" fill="#E5E5E5" fill-rule="evenodd" fill-opacity="1"/><path d="M2657 1808 2662 1808 2662 1823 2657 1823Z" fill="#E5E5E5" fill-rule="evenodd" fill-opacity="1"/><path d="M2661.93 2142.9 2656.93 2142.9 2656.93 2110.9 2661.93 2110.9ZM2661.93 2078.9 2656.93 2078.9 2656.93 2046.9 2661.93 2046.9ZM2661.93 2014.9 2656.93 2014.9 2656.93 1982.9 2661.93 1982.9ZM2661.93 1950.9 2656.93 1950.9 2656.93 1918.9 2661.93 1918.9ZM2661.93 1886.9 2656.93 1886.9 2656.93 1854.9 2661.93 1854.9Z" fill="#E5E5E5" fill-rule="evenodd" fill-opacity="1"/><path d="M2657 2175 2662 2175 2662 2190 2657 2190Z" fill="#E5E5E5" fill-rule="evenodd" fill-opacity="1"/><path d="M2933 1514 2938 1514 2938 1529 2933 1529Z" fill="#E5E5E5" fill-rule="evenodd" fill-opacity="1"/><path d="M2937.93 2143.9 2932.93 2143.9 2932.93 2113.16 2937.93 2113.16ZM2937.93 2082.43 2932.93 2082.43 2932.93 2051.69 2937.93 2051.69ZM2937.93 2020.95 2932.93 2020.95 2932.93 1990.22 2937.93 1990.22ZM2937.93 1959.48 2932.93 1959.48 2932.93 1928.74 2937.93 1928.74ZM2937.93 1898 2932.93 1898 2932.93 1867.27 2937.93 1867.27ZM2937.93 1836.53 2932.93 1836.53 2932.93 1805.79 2937.93 1805.79ZM2937.93 1775.06 2932.93 1775.06 2932.93 1744.32 2937.93 1744.32ZM2937.93 1713.58 2932.93 1713.58 2932.93 1682.85 2937.93 1682.85ZM2937.93 1652.11 2932.93 1652.11 2932.93 1621.37 2937.93 1621.37ZM2937.93 1590.63 2932.93 1590.63 2932.93 1559.9 2937.93 1559.9Z" fill="#E5E5E5" fill-rule="evenodd" fill-opacity="1"/><path d="M2933 2175 2938 2175 2938 2190 2933 2190Z" fill="#E5E5E5" fill-rule="evenodd" fill-opacity="1"/><path d="M3207 1394 3212 1394 3212 1409 3207 1409Z" fill="#E5E5E5" fill-rule="evenodd" fill-opacity="1"/><path d="M3211.93 2143.9 3206.93 2143.9 3206.93 2113.25 3211.93 2113.25ZM3211.93 2082.59 3206.93 2082.59 3206.93 2051.94 3211.93 2051.94ZM3211.93 2021.29 3206.93 2021.29 3206.93 1990.64 3211.93 1990.64ZM3211.93 1959.99 3206.93 1959.99 3206.93 1929.33 3211.93 1929.33ZM3211.93 1898.68 3206.93 1898.68 3206.93 1868.03 3211.93 1868.03ZM3211.93 1837.38 3206.93 1837.38 3206.93 1806.72 3211.93 1806.72ZM3211.93 1776.07 3206.93 1776.07 3206.93 1745.42 3211.93 1745.42ZM3211.93 1714.77 3206.93 1714.77 3206.93 1684.12 3211.93 1684.12ZM3211.93 1653.46 3206.93 1653.46 3206.93 1622.81 3211.93 1622.81ZM3211.93 1592.16 3206.93 1592.16 3206.93 1561.51 3211.93 1561.51ZM3211.93 1530.85 3206.93 1530.85 3206.93 1500.2 3211.93 1500.2ZM3211.93 1469.55 3206.93 1469.55 3206.93 1438.9 3211.93 1438.9Z" fill="#E5E5E5" fill-rule="evenodd" fill-opacity="1"/><path d="M3207 2175 3212 2175 3212 2190 3207 2190Z" fill="#E5E5E5" fill-rule="evenodd" fill-opacity="1"/><path d="M2383 1606 2388 1606 2388 1621 2383 1621Z" fill="#E5E5E5" fill-rule="evenodd" fill-opacity="1"/><path d="M2387.93 2145.9 2382.93 2145.9 2382.93 2116.78 2387.93 2116.78ZM2387.93 2087.66 2382.93 2087.66 2382.93 2058.54 2387.93 2058.54ZM2387.93 2029.43 2382.93 2029.43 2382.93 2000.31 2387.93 2000.31ZM2387.93 1971.19 2382.93 1971.19 2382.93 1942.08 2387.93 1942.08ZM2387.93 1912.96 2382.93 1912.96 2382.93 1883.84 2387.93 1883.84ZM2387.93 1854.72 2382.93 1854.72 2382.93 1825.6 2387.93 1825.6ZM2387.93 1796.49 2382.93 1796.49 2382.93 1767.37 2387.93 1767.37ZM2387.93 1738.25 2382.93 1738.25 2382.93 1709.13 2387.93 1709.13ZM2387.93 1680.01 2382.93 1680.01 2382.93 1650.9 2387.93 1650.9Z" fill="#E5E5E5" fill-rule="evenodd" fill-opacity="1"/><path d="M2383 2175 2388 2175 2388 2190 2383 2190Z" fill="#E5E5E5" fill-rule="evenodd" fill-opacity="1"/><path d="M3490.72 2196.9 1831.13 2196.9C1828.26 2196.9 1825.93 2194.57 1825.93 2191.71L1825.93 1397.07C1825.94 1394.21 1828.27 1391.89 1831.14 1391.9 1834 1391.9 1836.31 1394.22 1836.32 1397.07L1836.32 2186.52 3490.72 2186.52C3493.58 2186.51 3495.91 2188.83 3495.93 2191.7 3495.93 2194.56 3493.6 2196.89 3490.74 2196.9 3490.74 2196.9 3490.72 2196.9 3490.72 2196.9Z" fill="#3F3D56" fill-rule="evenodd" fill-opacity="1"/><path d="M2661.24 1815 2385.35 1608.3 2113.23 1812.18 2107 1803.86 2385.35 1595.32 2659.93 1801.03 2932.79 1502.37 2933.88 1501.92 3209.12 1391 3213 1400.64 2938.86 1511.12 2661.24 1815Z" fill="#3F3D56" fill-rule="evenodd" fill-opacity="1"/><path d="M2142 1808C2142 1825.12 2127.9 1839 2110.5 1839 2093.1 1839 2079 1825.12 2079 1808 2079 1790.88 2093.1 1777 2110.5 1777 2127.9 1777 2142 1790.88 2142 1808Z" fill="#6C63FF" fill-rule="evenodd" fill-opacity="1"/><path d="M2417 1605.5C2417 1622.9 2402.9 1637 2385.5 1637 2368.1 1637 2354 1622.9 2354 1605.5 2354 1588.1 2368.1 1574 2385.5 1574 2402.9 1574 2417 1588.1 2417 1605.5Z" fill="#6C63FF" fill-rule="evenodd" fill-opacity="1"/><path d="M2692 1808C2692 1825.12 2678.12 1839 2661 1839 2643.88 1839 2630 1825.12 2630 1808 2630 1790.88 2643.88 1777 2661 1777 2678.12 1777 2692 1790.88 2692 1808Z" fill="#E5E5E5" fill-rule="evenodd" fill-opacity="1"/><path d="M2684 1918C2684 1935.12 2670.12 1949 2653 1949 2635.88 1949 2622 1935.12 2622 1918 2622 1900.88 2635.88 1887 2653 1887 2670.12 1887 2684 1900.88 2684 1918Z" fill="#6C63FF" fill-rule="evenodd" fill-opacity="1"/><path d="M2967 1507C2967 1524.12 2953.12 1538 2936 1538 2918.88 1538 2905 1524.12 2905 1507 2905 1489.88 2918.88 1476 2936 1476 2953.12 1476 2967 1489.88 2967 1507Z" fill="#6C63FF" fill-rule="evenodd" fill-opacity="1"/><path d="M3242 1392.5C3242 1409.9 3228.12 1424 3211 1424 3193.88 1424 3180 1409.9 3180 1392.5 3180 1375.1 3193.88 1361 3211 1361 3228.12 1361 3242 1375.1 3242 1392.5Z" fill="#6C63FF" fill-rule="evenodd" fill-opacity="1"/><path d="M1826.01 1914.47C1834.75 1917.81 1833.2 1943.08 1822.56 1970.92 1811.93 1998.75 1796.22 2018.61 1787.48 2015.27 1778.74 2011.93 1780.29 1986.66 1790.93 1958.83 1801.57 1930.99 1817.27 1911.13 1826.01 1914.47Z" fill="#2F2E41" fill-rule="evenodd" fill-opacity="1"/><path d="M1815 2046C1815 2105.65 1766.65 2154 1707 2154 1647.35 2154 1599 2105.65 1599 2046 1599 1986.35 1647.35 1938 1707 1938 1766.65 1938 1815 1986.35 1815 2046Z" fill="#2F2E41" fill-rule="evenodd" fill-opacity="1"/><path d="M1658 2131 1691 2131 1691 2190 1658 2190Z" fill="#2F2E41" fill-rule="evenodd" fill-opacity="1"/><path d="M1724 2131 1756 2131 1756 2190 1724 2190Z" fill="#2F2E41" fill-rule="evenodd" fill-opacity="1"/><path d="M1713 2190.5C1713 2196.3 1700.69 2201 1685.5 2201 1670.31 2201 1658 2196.3 1658 2190.5 1658 2184.7 1670.31 2180 1685.5 2180 1700.69 2180 1713 2184.7 1713 2190.5Z" fill="#2F2E41" fill-rule="evenodd" fill-opacity="1"/><path d="M1778 2189C1778 2194.52 1765.91 2199 1751 2199 1736.09 2199 1724 2194.52 1724 2189 1724 2183.48 1736.09 2179 1751 2179 1765.91 2179 1778 2183.48 1778 2189Z" fill="#2F2E41" fill-rule="evenodd" fill-opacity="1"/><path d="M1747 2019C1747 2039.43 1730.43 2056 1710 2056 1689.57 2056 1673 2039.43 1673 2019 1673 1998.57 1689.57 1982 1710 1982 1730.43 1982 1747 1998.57 1747 2019Z" fill="#FFFFFF" fill-rule="evenodd" fill-opacity="1"/><path d="M1722 2019C1722 2025.63 1716.63 2031 1710 2031 1703.37 2031 1698 2025.63 1698 2019 1698 2012.37 1703.37 2007 1710 2007 1716.63 2007 1722 2012.37 1722 2019Z" fill="#3F3D56" fill-rule="evenodd" fill-opacity="1"/><path d="M1602.53 1946.07C1593.82 1907.06 1621.65 1867.64 1664.68 1858.03 1707.72 1848.42 1749.66 1872.24 1758.37 1911.25 1767.07 1950.26 1738.55 1964.64 1695.52 1974.26 1652.48 1983.87 1611.23 1985.07 1602.53 1946.07Z" fill="#BFBFBF" fill-rule="evenodd" fill-opacity="1"/><path d="M1592.71 1980.97C1619.63 1993.74 1638.2 2010.94 1634.2 2019.39 1630.19 2027.85 1605.11 2024.35 1578.19 2011.58 1551.28 1998.81 1532.7 1981.61 1536.71 1973.16 1540.72 1964.71 1565.79 1968.2 1592.71 1980.97Z" fill="#2F2E41" fill-rule="evenodd" fill-opacity="1"/><path d="M1653.93 2085.13C1653.93 2095.81 1681.16 2116.9 1711.38 2116.9 1741.6 2116.9 1769.93 2086.84 1769.93 2076.16 1769.93 2065.48 1741.6 2078.23 1711.38 2078.23 1681.16 2078.23 1653.93 2074.46 1653.93 2085.13Z" fill="#FFFFFF" fill-rule="evenodd" fill-opacity="1"/><path d="M2630 2029C2630 2088.65 2581.65 2137 2522 2137 2462.35 2137 2414 2088.65 2414 2029 2414 1969.35 2462.35 1921 2522 1921 2581.65 1921 2630 1969.35 2630 2029Z" fill="#2F2E41" fill-rule="evenodd" fill-opacity="1"/><path d="M2473 2114 2505 2114 2505 2173 2473 2173Z" fill="#2F2E41" fill-rule="evenodd" fill-opacity="1"/><path d="M2538 2114 2571 2114 2571 2173 2538 2173Z" fill="#2F2E41" fill-rule="evenodd" fill-opacity="1"/><path d="M2501.54 2171.44C2515.28 2177.65 2524.54 2186.87 2522.2 2192.03 2519.87 2197.18 2506.84 2196.32 2493.09 2190.11 2479.35 2183.89 2470.1 2174.67 2472.43 2169.52 2474.76 2164.36 2487.79 2165.22 2501.54 2171.44Z" fill="#2F2E41" fill-rule="evenodd" fill-opacity="1"/><path d="M2564.85 2167.68C2578.42 2174.27 2587.42 2183.74 2584.95 2188.83 2582.48 2193.92 2569.47 2192.7 2555.9 2186.12 2542.33 2179.53 2533.34 2170.06 2535.81 2164.97 2538.28 2159.88 2551.28 2161.09 2564.85 2167.68Z" fill="#2F2E41" fill-rule="evenodd" fill-opacity="1"/><path d="M2417.53 1929.06C2408.82 1890.06 2436.65 1850.64 2479.68 1841.03 2522.72 1831.41 2564.66 1855.24 2573.37 1894.25 2582.07 1933.26 2553.55 1947.64 2510.52 1957.26 2467.48 1966.87 2426.23 1968.07 2417.53 1929.06Z" fill="#6C63FF" fill-rule="evenodd" fill-opacity="1"/><path d="M2666.99 1926.35C2674.33 1933.69 2661.33 1958.59 2637.96 1981.98 2614.59 2005.37 2589.7 2018.38 2582.36 2011.05 2575.01 2003.71 2588.01 1978.81 2611.38 1955.42 2634.75 1932.03 2659.65 1919.01 2666.99 1926.35Z" fill="#2F2E41" fill-rule="evenodd" fill-opacity="1"/><path d="M2430.29 2011.11C2440.32 2013.77 2441.58 2041.83 2433.1 2073.79 2424.62 2105.75 2409.61 2129.5 2399.58 2126.83 2389.55 2124.17 2388.29 2096.11 2396.77 2064.15 2405.26 2032.19 2420.26 2008.44 2430.29 2011.11Z" fill="#2F2E41" fill-rule="evenodd" fill-opacity="1"/><path d="M495.573 1919.62C506.974 1828.01 563.781 1737.76 651.204 1707.94 616.727 1802.23 616.734 1905.66 651.225 1999.95 664.659 2036.26 683.382 2075.25 670.748 2111.85 662.886 2134.62 643.652 2152.05 622.152 2162.94 600.653 2173.83 576.794 2179.02 553.233 2184.11L548.594 2187.94C511.19 2103.54 484.172 2011.22 495.573 1919.62Z" fill="#F0F0F0" fill-rule="evenodd" fill-opacity="1"/><path d="M652.379 1709.62C601.525 1766.7 569.919 1838.38 562.046 1914.48 560.062 1930.83 560.662 1947.39 563.827 1963.56 567.417 1979.2 575.125 1993.6 586.149 2005.25 596.209 2016.33 607.778 2026.49 614.976 2039.82 622.224 2053.73 623.202 2070.08 617.663 2084.75 611.307 2103.01 598.779 2117.9 586.025 2132.03 571.865 2147.71 556.907 2163.78 550.888 2184.58 550.16 2187.1 546.299 2185.82 547.027 2183.3 557.498 2147.12 592.56 2126.57 609.282 2093.98 617.086 2078.77 620.361 2061.12 613.047 2045.06 606.649 2031.03 594.726 2020.54 584.443 2009.42 573.523 1998.21 565.509 1984.49 561.102 1969.46 557.127 1953.51 555.892 1937 557.446 1920.63 560.36 1883.73 569.047 1847.51 583.191 1813.32 599.119 1774.19 621.606 1738.09 649.688 1706.57 651.424 1704.62 654.105 1707.69 652.379 1709.62Z" fill="#FFFFFF" fill-rule="evenodd" fill-opacity="1"/><path d="M563.234 1889.88C536.881 1883.58 519.039 1859.42 521.096 1832.8 521.305 1830.19 525.432 1830.4 525.219 1833.01 523.26 1857.8 539.945 1880.3 564.53 1886.02 567.117 1886.63 565.806 1890.48 563.234 1889.88Z" fill="#FFFFFF" fill-rule="evenodd" fill-opacity="1"/><path d="M579.961 2000.01C602.701 1986.42 619.488 1964.74 626.974 1939.31 627.714 1936.79 631.582 1938.07 630.843 1940.59 623.002 1967.04 605.49 1989.56 581.794 2003.65 579.535 2005 577.716 2001.35 579.961 2000.01Z" fill="#FFFFFF" fill-rule="evenodd" fill-opacity="1"/><path d="M602.61 1777.76C612.057 1782.28 623.13 1781.72 632.072 1776.25 634.327 1774.86 636.156 1778.56 633.915 1779.94 624.012 1785.93 611.801 1786.58 601.323 1781.68 600.275 1781.29 599.705 1780.15 600.023 1779.07 600.379 1777.99 601.534 1777.41 602.61 1777.76Z" fill="#FFFFFF" fill-rule="evenodd" fill-opacity="1"/><path d="M917.936 1871.7C916.562 1872.59 915.188 1873.49 913.81 1874.42 895.404 1886.54 878.012 1900.13 861.805 1915.07 860.534 1916.2 859.26 1917.37 858.026 1918.54 819.359 1954.95 787.783 1998.22 764.898 2046.17 755.809 2065.25 748.182 2085 742.089 2105.25 733.669 2133.21 726.768 2164.2 710.107 2187.07 708.393 2189.47 706.534 2191.77 704.538 2193.94L553.974 2193.94C553.634 2193.77 553.291 2193.64 552.947 2193.46L546.936 2193.74C547.176 2192.67 547.447 2191.57 547.691 2190.51 547.829 2189.89 548 2189.27 548.138 2188.65 548.237 2188.24 548.344 2187.82 548.413 2187.44 548.443 2187.31 548.481 2187.17 548.512 2187.07 548.581 2186.69 548.687 2186.34 548.756 2186 550.268 2179.84 551.824 2173.69 553.428 2167.53 553.428 2167.5 553.428 2167.5 553.459 2167.46 565.795 2120.59 582.146 2074.33 604.987 2032.03 605.677 2030.76 606.361 2029.45 607.12 2028.18 617.522 2009.17 629.459 1991.04 642.812 1973.98 650.153 1964.66 657.961 1955.72 666.205 1947.19 687.548 1925.19 712.216 1906.69 739.306 1892.37 793.307 1863.82 855.824 1852.89 913.539 1870.32 915.012 1870.77 916.459 1871.22 917.936 1871.7Z" fill="#F0F0F0" fill-rule="evenodd" fill-opacity="1"/><path d="M918.168 1874.05C843.137 1888.92 774.71 1927.03 722.605 1982.95 711.174 1994.79 701.683 2008.35 694.485 2023.14 687.936 2037.78 685.433 2053.9 687.231 2069.82 688.613 2084.7 691.751 2099.77 689.482 2114.73 686.904 2130.18 677.842 2143.8 664.576 2152.17 648.502 2162.9 629.526 2167.22 610.818 2170.8 590.051 2174.78 568.414 2178.58 551.081 2191.54 548.981 2193.1 546.664 2189.76 548.761 2188.19 578.919 2165.66 619.333 2170.39 652.324 2154.48 667.718 2147.05 680.964 2134.95 684.78 2117.75 688.114 2102.71 684.89 2087.17 683.363 2072.11 681.38 2056.6 683.229 2040.84 688.75 2026.21 695.175 2011.1 704.124 1997.19 715.221 1985.08 739.766 1957.42 768.515 1933.79 800.414 1915.04 836.702 1893.45 876.421 1878.21 917.856 1869.99 920.42 1869.48 920.716 1873.54 918.168 1874.05Z" fill="#FFFFFF" fill-rule="evenodd" fill-opacity="1"/><path d="M738.12 1963.17C721.421 1942.53 721.942 1912.67 739.353 1892.64 741.066 1890.68 744.147 1893.29 742.434 1895.25 726.178 1913.87 725.748 1941.72 741.418 1960.86 743.064 1962.87 739.756 1965.18 738.12 1963.17Z" fill="#FFFFFF" fill-rule="evenodd" fill-opacity="1"/><path d="M685.275 2062.31C711.425 2065.14 737.684 2058.01 758.811 2042.35 760.901 2040.79 763.203 2044.12 761.113 2045.67 739.098 2061.93 711.759 2069.29 684.554 2066.29 681.958 2066 682.696 2062.02 685.275 2062.31Z" fill="#FFFFFF" fill-rule="evenodd" fill-opacity="1"/><path d="M836.67 1898.8C841.549 1907.88 850.797 1913.96 861.286 1914.99 863.934 1915.24 863.178 1919.18 860.547 1918.93 848.971 1917.74 838.758 1911.06 833.276 1901.09 832.666 1900.17 832.893 1898.95 833.799 1898.3 834.736 1897.67 836.019 1897.9 836.67 1898.8Z" fill="#FFFFFF" fill-rule="evenodd" fill-opacity="1"/><path d="M3127 1228 2642 1228 2642 1221.14 3120.12 1221.14 3120.12 902 3127 902 3127 1228Z" fill="#E4E4E4" fill-rule="evenodd" fill-opacity="1"/><path d="M1556.87 1362 1550 1362 1550 1036 2034 1036 2034 1042.86 1556.87 1042.86 1556.87 1362Z" fill="#E4E4E4" fill-rule="evenodd" fill-opacity="1"/><path d="M2264 634 1780 634 1780 307 1786.86 307 1786.86 627.116 2264 627.116 2264 634Z" fill="#E4E4E4" fill-rule="evenodd" fill-opacity="1"/><path d="M1683.7 169.943C1678.3 169.954 1673.93 174.437 1673.94 179.961 1673.95 185.471 1678.31 189.933 1683.7 189.943L1882.17 189.943C1887.57 189.933 1891.95 185.446 1891.94 179.926 1891.93 174.416 1887.56 169.954 1882.17 169.943Z" fill="#3F3D56" fill-rule="evenodd" fill-opacity="1"/><path d="M1683.72 227.943C1678.32 227.943 1673.94 232.42 1673.94 237.943 1673.94 243.467 1678.32 247.943 1683.72 247.943L1882.17 247.943C1887.57 247.933 1891.95 243.446 1891.94 237.922 1891.93 232.416 1887.56 227.95 1882.17 227.943Z" fill="#3F3D56" fill-rule="evenodd" fill-opacity="1"/><path d="M3224.13 857.943C3229.56 857.933 3233.97 853.447 3233.94 847.924 3233.94 842.415 3229.56 837.954 3224.13 837.943L3024.78 837.943C3019.35 837.933 3014.95 842.401 3014.94 847.924 3014.93 853.447 3019.32 857.933 3024.74 857.943 3024.75 857.943 3024.77 857.943 3024.78 857.943Z" fill="#2F2E41" fill-rule="evenodd" fill-opacity="1"/><path d="M3224.13 799.946C3229.56 799.936 3233.97 795.673 3233.94 790.43 3233.94 785.195 3229.56 780.956 3224.13 780.946L3024.78 780.946C3019.35 780.936 3014.95 785.182 3014.94 790.43 3014.93 795.673 3019.32 799.936 3024.74 799.946 3024.75 799.946 3024.77 799.946 3024.78 799.946Z" fill="#2F2E41" fill-rule="evenodd" fill-opacity="1"/><path d="M2380.94 1323.94C2177.69 1323.94 2012.94 1159.41 2012.94 956.444 2012.94 753.481 2177.69 588.944 2380.94 588.944 2584.17 588.944 2748.94 753.481 2748.94 956.444 2748.71 1159.31 2584.08 1323.71 2380.94 1323.94ZM2380.94 595.813C2181.49 595.813 2019.81 757.273 2019.81 956.444 2019.81 1155.62 2181.49 1317.08 2380.94 1317.08 2580.38 1317.08 2742.06 1155.62 2742.06 956.444 2741.83 757.369 2580.28 596.04 2380.94 595.813Z" fill="#E4E4E4" fill-rule="evenodd" fill-opacity="1"/><path d="M2275 634C2275 656.644 2256.42 675 2233.5 675 2210.58 675 2192 656.644 2192 634 2192 611.356 2210.58 593 2233.5 593 2256.42 593 2275 611.356 2275 634Z" fill="#6C63FF" fill-rule="evenodd" fill-opacity="1"/><path d="M2065 1042.5C2065 1065.42 2046.64 1084 2024 1084 2001.36 1084 1983 1065.42 1983 1042.5 1983 1019.58 2001.36 1001 2024 1001 2046.64 1001 2065 1019.58 2065 1042.5Z" fill="#6C63FF" fill-rule="evenodd" fill-opacity="1"/><path d="M2670 1228C2670 1250.64 2651.42 1269 2628.5 1269 2605.58 1269 2587 1250.64 2587 1228 2587 1205.36 2605.58 1187 2628.5 1187 2651.42 1187 2670 1205.36 2670 1228Z" fill="#6C63FF" fill-rule="evenodd" fill-opacity="1"/><path d="M1451.76 1405.94C1446.33 1405.94 1441.94 1410.42 1441.94 1415.94 1441.94 1421.47 1446.33 1425.94 1451.76 1425.94L1651.13 1425.94C1656.55 1425.93 1660.95 1421.45 1660.94 1415.93 1660.93 1410.42 1656.54 1405.95 1651.13 1405.94Z" fill="#2F2E41" fill-rule="evenodd" fill-opacity="1"/><path d="M1451.78 1463.94C1446.35 1463.94 1441.95 1468.4 1441.94 1473.92 1441.93 1479.45 1446.32 1483.93 1451.74 1483.94 1451.75 1483.94 1451.77 1483.94 1451.78 1483.94L1651.13 1483.94C1656.55 1483.93 1660.95 1479.45 1660.94 1473.92 1660.93 1468.42 1656.54 1463.95 1651.13 1463.94Z" fill="#2F2E41" fill-rule="evenodd" fill-opacity="1"/><path d="M961.326 2198.94 911.546 2198.94C898.511 2198.93 887.95 2188.3 887.936 2175.19L887.936 1757.7C887.95 1744.59 898.511 1733.96 911.546 1733.94L961.326 1733.94C974.357 1733.96 984.919 1744.59 984.936 1757.7L984.936 2175.19C984.919 2188.3 974.357 2198.93 961.326 2198.94Z" fill="#F5E6CC" fill-rule="evenodd" fill-opacity="1"/><path d="M1094.08 2198.94 1043.79 2198.94C1030.62 2198.93 1019.95 2188.3 1019.94 2175.19L1019.94 1757.7C1019.95 1744.59 1030.62 1733.96 1043.79 1733.94L1094.08 1733.94C1107.25 1733.96 1117.92 1744.59 1117.94 1757.7L1117.94 2175.19C1117.92 2188.3 1107.25 2198.93 1094.08 2198.94Z" fill="#F5E6CC" fill-rule="evenodd" fill-opacity="1"/><path d="M1180 1128.5C1180 1223.77 1102.77 1301 1007.5 1301 912.231 1301 835 1223.77 835 1128.5 835 1033.23 912.231 956 1007.5 956 1102.77 956 1180 1033.23 1180 1128.5Z" fill="#F5E6CC" fill-rule="evenodd" fill-opacity="1"/><path d="M1066.1 1881.94 941.94 1881.94C861.059 1882.25 795.242 1816.92 794.937 1736.02 794.838 1709.93 801.708 1684.29 814.834 1661.74L988.47 1360.95C994.544 1350.42 1008 1346.82 1018.52 1352.9 1021.86 1354.82 1024.64 1357.6 1026.57 1360.95L1196.71 1655.69C1238.35 1727.83 1213.64 1820.08 1141.5 1861.73 1118.58 1874.97 1092.57 1881.94 1066.1 1881.94Z" fill="#FFC000" fill-rule="evenodd" fill-opacity="1"/><path d="M1048.13 1200.94C1059.34 1200.63 1073.29 1200.25 1084.04 1192.43 1090.52 1187.52 1094.49 1180.01 1094.89 1171.91 1095.29 1166.15 1092.95 1160.53 1088.59 1156.74 1082.97 1152.01 1074.77 1150.9 1065.94 1153.49L1075.09 1086.86 1068.37 1085.94 1057.61 1164.27 1063.22 1161.71C1069.73 1158.74 1078.66 1157.23 1084.2 1161.89 1086.97 1164.37 1088.41 1167.99 1088.11 1171.68 1087.78 1177.7 1084.83 1183.28 1080.04 1186.97 1071.67 1193.06 1060.55 1193.84 1047.94 1194.19Z" fill="#2F2E41" fill-rule="evenodd" fill-opacity="1"/><path d="M1108 1092 1145 1092 1145 1099 1108 1099Z" fill="#2F2E41" fill-rule="evenodd" fill-opacity="1"/><path d="M993 1092 1030 1092 1030 1099 993 1099Z" fill="#2F2E41" fill-rule="evenodd" fill-opacity="1"/><path d="M966.743 1843.41C965.307 1840.39 964.533 1837.11 964.472 1833.76L955.947 1523.67C955.37 1496.79 976.719 1474.53 1003.63 1473.96 1030.54 1473.38 1052.82 1494.68 1053.41 1521.55L1061.93 1831.65C1062.2 1844.73 1051.82 1855.55 1038.72 1855.85L988.708 1856.94C979.362 1857.13 970.769 1851.84 966.743 1843.41Z" fill="#F5E6CC" fill-rule="evenodd" fill-opacity="1"/><path d="M991.472 1000.7C1012.46 1028.09 1045.78 1046.46 1081 1042.11 1114.53 1037.97 1142.2 1014.64 1149.14 981.246 1155.29 949.206 1145.44 916.182 1122.73 892.716 1098.99 867.802 1065.02 854.4 1031.4 849.806 967.702 841.099 902.283 863.49 854.121 905.248 829.935 926.01 810.631 951.835 797.578 980.883 785.006 1009.72 779.019 1040.98 780.049 1072.41 781.901 1134.53 809.164 1196.52 856.206 1237.71 862.049 1242.81 868.163 1247.59 874.525 1252.03 879.89 1255.79 884.974 1247 879.653 1243.28 831.478 1209.55 800.752 1154.67 792.316 1097.01 783.378 1038.22 800.783 978.466 839.917 933.613 878.818 889.473 935.856 860.782 994.931 858.215 1054.38 855.627 1128.66 882.11 1139.78 948.143 1144.77 977.739 1133.68 1008.85 1106.51 1023.67 1077.41 1039.53 1041.73 1033 1016.72 1012.51 1010.59 1007.52 1005.07 1001.83 1000.25 995.578 996.329 990.464 987.498 995.509 991.472 1000.7Z" fill="#2F2E41" fill-rule="evenodd" fill-opacity="1"/><path d="M1648.5 2199.95 339.372 2199.95C337.472 2199.95 335.936 2198.61 335.936 2196.95 335.936 2195.3 337.472 2193.95 339.372 2193.95L1648.5 2193.95C1650.4 2193.95 1651.94 2195.3 1651.94 2196.95 1651.94 2198.61 1650.4 2199.95 1648.5 2199.95Z" fill="#3F3D56" fill-rule="evenodd" fill-opacity="1"/></g></svg>